<?xml version="1.0" standalone="no"?>
<!DOCTYPE svg PUBLIC "-//W3C//DTD SVG 20010904//EN"
 "http://www.w3.org/TR/2001/REC-SVG-20010904/DTD/svg10.dtd">
<svg version="1.0" xmlns="http://www.w3.org/2000/svg"
 width="512.000000pt" height="512.000000pt" viewBox="0 0 512.000000 512.000000"
 preserveAspectRatio="xMidYMid meet">
<metadata>
Created by potrace 1.11, written by Peter Selinger 2001-2013
</metadata>
<g transform="translate(0.000000,512.000000) scale(0.100000,-0.100000)"
fill="#000000" stroke="none">
<path d="M1232 4847 c-12 -15 -12 -51 1 -63 4 -4 7 -22 7 -40 0 -19 9 -48 20
-66 11 -18 20 -29 20 -25 0 22 31 -26 38 -61 5 -22 22 -56 37 -76 17 -22 25
-43 22 -56 -3 -14 5 -27 29 -46 35 -29 43 -60 22 -83 -11 -11 -10 -13 4 -8 12
4 15 2 11 -9 -3 -8 1 -22 8 -31 11 -13 11 -17 2 -20 -19 -7 -16 -22 12 -55 14
-16 25 -35 25 -43 0 -7 6 -15 14 -18 15 -6 25 -54 28 -130 1 -34 6 -51 18 -57
13 -7 16 -22 15 -70 -1 -33 2 -63 7 -66 4 -3 8 -16 8 -29 0 -13 6 -26 13 -28
10 -4 10 -6 0 -6 -17 -1 -16 -21 3 -60 10 -21 15 -50 12 -85 -2 -35 2 -59 11
-69 9 -12 12 -34 9 -72 -3 -39 -1 -59 9 -66 16 -14 17 -49 1 -49 -6 0 -3 -6 7
-14 15 -11 19 -29 21 -112 4 -184 14 -294 26 -317 18 -33 22 -381 5 -399 -7
-7 -26 -53 -42 -103 -16 -49 -34 -95 -40 -100 -11 -12 -33 -12 -56 -2 -11 6
-29 -5 -60 -33 -24 -22 -50 -38 -58 -35 -8 3 -20 -4 -28 -15 -8 -11 -21 -20
-29 -20 -8 0 -19 -10 -25 -23 -6 -13 -26 -29 -45 -36 -19 -7 -34 -18 -34 -25
0 -8 -6 -19 -14 -26 -8 -6 -12 -18 -9 -26 7 -19 -2 -18 -34 3 -15 10 -24 13
-20 6 4 -6 3 -15 -3 -18 -6 -4 -8 -16 -4 -27 5 -16 2 -19 -13 -14 -31 9 -63
-27 -63 -72 0 -38 -1 -40 -38 -45 -26 -5 -40 -13 -47 -29 -6 -13 -20 -27 -32
-32 -14 -7 -23 -22 -27 -48 -4 -23 -12 -38 -20 -38 -7 0 -16 -9 -19 -21 -3
-12 -10 -18 -15 -15 -5 3 -15 -1 -22 -9 -7 -8 -17 -12 -23 -8 -6 4 -8 -2 -4
-18 5 -17 -1 -31 -21 -53 -18 -19 -23 -30 -14 -33 6 -3 10 -8 7 -13 -3 -4 -6
-27 -7 -49 -1 -23 -7 -46 -15 -52 -7 -6 -10 -16 -7 -21 3 -5 5 -77 5 -159 -2
-136 0 -154 19 -184 11 -18 17 -40 14 -49 -4 -10 1 -18 12 -23 19 -6 73 -62
74 -75 0 -4 18 -26 40 -48 22 -22 40 -49 40 -60 0 -26 49 -70 77 -70 13 0 23
-4 23 -10 0 -5 8 -10 18 -10 9 0 32 -9 50 -20 47 -29 173 -29 209 0 14 11 33
20 41 20 9 0 30 15 47 33 18 17 43 41 56 52 35 30 56 57 64 84 5 16 4 21 -4
17 -7 -4 -11 1 -11 13 0 14 8 21 27 23 26 3 27 6 28 51 0 34 5 52 18 61 9 7
17 25 17 39 0 16 8 31 21 37 17 9 20 20 18 56 -3 38 1 48 29 75 17 17 29 35
26 40 -3 5 1 19 8 31 13 25 25 196 19 283 -1 11 0 130 2 265 l4 245 36 54 c20
29 37 59 37 67 0 8 4 14 9 14 5 0 13 9 16 20 5 15 12 19 26 15 14 -5 22 0 30
19 8 18 16 23 24 16 7 -6 17 -1 29 15 10 14 22 22 27 19 10 -6 85 31 96 48 4
7 26 19 48 27 64 21 135 54 135 62 0 16 59 71 69 65 6 -4 14 0 17 8 3 8 21 20
40 26 19 6 34 18 34 26 0 8 10 14 24 14 14 0 28 5 31 10 3 6 18 10 32 10 15 0
23 3 20 7 -9 8 24 32 45 33 9 0 20 9 23 21 5 14 13 19 26 16 11 -3 26 1 33 9
8 8 22 14 30 14 9 0 25 5 36 10 11 6 29 15 40 20 11 6 29 10 40 10 11 0 20 4
20 9 0 5 18 0 40 -12 22 -12 40 -27 40 -34 0 -6 8 -14 18 -17 22 -7 49 -106
58 -218 3 -43 10 -78 15 -78 5 0 9 -9 9 -20 0 -11 8 -27 18 -36 15 -12 18 -27
16 -67 -2 -49 15 -95 30 -79 4 4 5 -5 1 -19 -5 -19 -2 -28 9 -32 11 -4 16 -19
16 -43 0 -26 5 -37 18 -41 14 -3 18 -11 14 -30 -3 -14 -1 -28 5 -32 18 -12 46
-87 50 -134 2 -27 10 -59 18 -71 8 -12 13 -36 11 -52 -2 -17 0 -37 5 -45 7
-11 9 -9 9 9 0 12 5 22 10 22 6 0 8 -16 6 -36 -4 -29 0 -41 20 -59 19 -17 24
-32 24 -68 0 -44 16 -96 33 -108 4 -3 9 -18 11 -32 1 -15 6 -30 9 -34 4 -3 7
-27 7 -53 0 -86 12 -170 25 -170 18 0 36 -45 23 -58 -8 -8 -3 -18 16 -34 17
-15 27 -35 28 -57 1 -18 8 -35 15 -38 6 -3 15 -30 18 -61 8 -68 10 -80 18
-112 13 -49 29 -307 27 -416 -2 -101 0 -116 21 -152 29 -50 76 -73 125 -62 39
9 64 26 64 45 0 7 12 29 26 50 24 35 24 41 13 89 -11 52 -35 106 -51 117 -5 3
-10 17 -12 30 -1 14 -6 30 -10 37 -4 7 -4 16 -1 22 3 5 1 19 -5 30 -14 26 -31
108 -30 143 0 18 -5 27 -15 27 -10 0 -15 10 -15 29 0 16 -6 36 -13 43 -8 7
-12 19 -9 27 2 7 -5 26 -17 42 -11 15 -21 37 -21 48 0 11 -4 22 -8 25 -5 3 -8
32 -7 65 1 42 -3 62 -12 65 -9 4 -13 25 -13 68 0 45 -6 72 -20 96 -11 18 -20
48 -20 67 0 19 -4 35 -10 35 -5 0 -10 6 -10 14 0 7 -7 19 -15 26 -14 11 -52
103 -58 138 -2 10 -8 27 -15 39 -7 12 -12 30 -12 40 0 10 -9 26 -20 36 -22 19
-24 29 -11 74 7 23 5 37 -5 50 -7 10 -14 35 -14 56 0 29 -4 37 -18 37 -23 0
-54 91 -51 147 1 21 -5 60 -15 87 -9 26 -14 57 -11 67 4 13 1 19 -9 19 -12 0
-16 10 -16 37 0 41 -28 113 -44 113 -6 0 -4 5 4 10 13 8 13 13 -3 39 -14 25
-17 43 -11 89 5 46 3 60 -10 71 -8 7 -20 10 -26 6 -7 -4 -9 2 -5 18 4 14 2 28
-3 31 -6 3 -8 15 -5 25 3 13 -2 24 -16 32 -22 15 -20 50 5 80 8 9 12 18 9 20
-3 4 6 81 18 141 5 26 17 34 27 18 7 -11 10 -8 10 13 0 15 -4 27 -10 27 -5 0
-10 11 -10 23 0 23 -53 108 -72 115 -14 6 -38 59 -38 85 0 15 -8 28 -22 35
-13 6 -17 11 -10 11 14 1 18 111 3 111 -5 0 -14 14 -20 31 -14 40 -14 39 4 39
17 0 31 43 20 61 -4 6 -2 15 5 19 9 6 15 42 17 112 7 182 9 202 21 231 7 16
10 32 7 37 -3 5 2 15 10 23 9 10 16 38 17 76 2 34 6 61 11 61 4 0 7 8 7 19 0
10 9 21 20 24 15 4 20 14 20 36 0 17 4 31 8 31 5 0 19 21 33 46 33 63 43 80
56 96 7 8 10 24 6 36 -6 23 -5 23 57 26 19 1 26 8 30 31 4 20 11 29 21 26 8
-2 22 -4 32 -5 9 0 17 -5 17 -11 0 -5 5 -2 11 8 7 11 22 17 49 17 25 0 47 -7
58 -17 22 -22 65 -45 78 -42 5 1 22 -3 37 -9 15 -7 33 -11 40 -9 6 1 13 -9 15
-23 2 -14 9 -31 15 -38 14 -17 49 -123 43 -129 -3 -3 0 -17 6 -32 13 -33 10
-201 -3 -218 -6 -6 -8 -21 -4 -33 4 -13 1 -22 -9 -26 -9 -3 -16 -15 -16 -25 0
-26 -23 -99 -31 -99 -4 0 -5 -17 -2 -38 4 -27 1 -42 -11 -51 -9 -7 -16 -22
-16 -32 0 -21 -16 -26 -23 -6 -3 8 -7 5 -13 -7 -4 -12 -3 -21 3 -23 6 -2 -3
-17 -19 -33 -16 -17 -27 -34 -23 -40 3 -5 -1 -10 -10 -10 -9 0 -14 -4 -11 -9
3 -5 -4 -22 -16 -37 -34 -44 -45 -54 -60 -54 -7 0 -18 -10 -25 -23 -6 -12 -23
-44 -37 -72 -14 -27 -26 -44 -26 -36 0 9 -12 2 -28 -17 -16 -18 -38 -32 -50
-32 -12 0 -26 -9 -32 -20 -6 -11 -20 -20 -30 -20 -15 0 -20 -7 -20 -26 0 -21
-4 -24 -19 -19 -41 13 -61 -104 -22 -125 31 -16 41 -12 41 18 0 16 6 37 14 47
11 16 17 17 29 7 12 -10 18 -10 30 3 9 8 20 15 26 15 6 0 11 7 11 15 0 19 32
35 57 29 29 -8 50 21 32 43 -13 15 -11 16 18 10 35 -7 57 7 68 43 3 11 13 20
21 20 8 0 14 4 14 10 0 5 10 20 23 33 12 13 38 43 57 66 68 81 81 96 95 112 8
9 15 27 15 40 0 13 9 30 20 37 11 7 20 21 20 32 0 11 4 20 9 20 5 0 13 10 17
23 4 12 9 24 13 27 16 13 31 53 31 85 0 24 6 37 21 45 16 9 20 22 21 68 0 31
3 104 5 162 12 274 10 298 -29 338 -64 66 -81 87 -87 111 -4 13 -16 29 -27 35
-10 6 -22 16 -26 21 -3 6 -20 25 -37 43 -17 17 -31 35 -31 40 0 4 -21 16 -47
25 -64 23 -143 14 -174 -19 -16 -17 -33 -24 -60 -24 -26 0 -44 -7 -60 -25 -13
-13 -29 -25 -35 -25 -6 0 -18 -7 -25 -16 -7 -9 -23 -20 -36 -25 -13 -5 -25
-20 -29 -36 -10 -48 -12 -51 -42 -58 -42 -9 -112 -95 -112 -139 0 -8 -9 -20
-20 -26 -11 -6 -20 -18 -20 -28 0 -14 -2 -15 -10 -2 -6 10 -9 2 -7 -28 1 -35
-3 -47 -21 -61 -15 -11 -19 -20 -12 -27 13 -13 -6 -80 -28 -94 -12 -8 -13 -13
-5 -16 10 -4 9 -13 -3 -36 -10 -18 -14 -50 -13 -83 2 -34 -2 -60 -11 -70 -13
-15 -24 -197 -13 -217 11 -21 17 -455 7 -482 -4 -10 0 -18 10 -22 15 -6 15 -7
0 -18 -17 -13 -44 -78 -44 -107 0 -9 -6 -28 -13 -42 -10 -19 -17 -23 -25 -15
-8 8 -18 5 -37 -10 -14 -12 -33 -18 -41 -15 -14 5 -84 -61 -84 -81 0 -4 -7 -5
-16 -2 -17 6 -64 -14 -82 -37 -7 -8 -32 -14 -62 -15 -27 0 -60 -8 -72 -16 -18
-13 -19 -16 -5 -16 20 0 24 -49 5 -68 -17 -17 -38 -15 -38 3 0 8 -9 15 -21 15
-26 0 -61 -19 -54 -29 3 -5 -2 -11 -10 -15 -8 -3 -17 0 -21 6 -4 7 -10 5 -16
-6 -6 -11 -16 -15 -28 -11 -11 3 -28 1 -40 -5 -22 -12 -27 -46 -7 -53 6 -2 -3
-4 -21 -5 -18 0 -39 -5 -46 -11 -6 -6 -22 -8 -35 -4 -20 5 -21 3 -16 -20 6
-23 4 -25 -37 -32 -24 -4 -47 -11 -53 -15 -22 -18 -114 -47 -125 -40 -6 4 -11
10 -11 14 3 20 -1 27 -22 37 -29 13 -55 68 -37 79 9 6 8 10 -6 18 -16 9 -19
26 -21 144 -1 73 -6 153 -11 178 -6 25 -11 85 -11 135 -1 49 -6 92 -12 95 -5
4 -10 94 -11 214 -2 183 -4 208 -19 216 -14 8 -41 80 -43 115 -1 6 -5 13 -10
17 -6 4 -5 12 3 21 8 10 9 17 1 22 -5 3 -10 37 -10 76 0 39 -4 69 -10 69 -5 0
-10 13 -10 29 0 16 -9 51 -20 77 -15 35 -20 62 -17 101 3 39 1 53 -8 53 -8 0
-16 -6 -18 -12 -3 -7 -6 0 -6 15 -1 19 3 26 11 21 22 -14 1 61 -31 108 -17 25
-31 55 -31 66 0 12 -5 24 -10 27 -6 3 -8 19 -5 35 3 16 1 31 -4 34 -5 3 -21
30 -35 61 -15 30 -33 55 -39 55 -8 0 -7 3 2 9 18 12 5 31 -21 31 -17 0 -20 5
-16 32 7 44 -23 109 -58 129 -44 25 -108 33 -122 16z m392 -2662 c16 -9 36
-25 43 -35 8 -11 21 -20 29 -20 13 0 15 -32 13 -227 -1 -205 -3 -231 -20 -259
-11 -18 -16 -39 -13 -48 3 -9 1 -23 -6 -30 -6 -8 -14 -40 -17 -70 -3 -31 -9
-56 -14 -56 -4 0 -11 -26 -15 -57 -5 -45 -12 -61 -36 -81 -18 -16 -27 -30 -23
-41 8 -25 -22 -101 -51 -132 -19 -19 -24 -33 -19 -48 3 -12 2 -21 -2 -21 -10
0 -45 -25 -77 -55 -11 -11 -26 -19 -33 -17 -7 2 -22 -2 -34 -9 -12 -6 -51 -12
-88 -14 -60 -3 -69 0 -103 27 -21 16 -38 35 -38 42 0 7 -11 18 -25 24 -14 6
-25 18 -25 26 0 8 -6 19 -12 23 -7 4 -22 26 -33 48 -11 22 -26 46 -32 53 -7 7
-13 31 -13 53 0 22 -5 50 -12 62 -21 39 -28 137 -11 163 8 13 12 27 9 33 -3 5
1 11 9 15 8 3 15 12 15 20 0 9 9 32 20 52 12 20 18 44 15 55 -5 14 -1 19 14
19 20 0 26 16 24 68 -1 6 3 12 8 12 14 0 49 33 49 47 0 7 9 18 20 25 11 7 20
18 20 25 0 7 11 20 25 29 17 11 24 23 20 34 -4 14 3 19 37 26 34 7 44 14 46
32 2 12 10 22 18 22 8 0 14 5 14 10 0 6 8 14 17 17 26 10 53 36 53 51 0 10 7
12 22 9 26 -7 58 8 58 28 0 14 14 20 65 27 11 2 26 16 33 31 15 31 17 32 56
12z"/>
</g>
</svg>
